<svg width="83" height="90" viewBox="0 0 83 90" fill="none" xmlns="http://www.w3.org/2000/svg">
<circle cx="37" cy="53" r="37" fill="#46A358" fill-opacity="0.13"/>
<g clip-path="url(#clip0_2005_43)">
<path d="M22.2488 40.7766C39.0216 39.0238 55.9382 41.7144 72.6698 39.29C73.4515 39.1753 73.1182 37.9918 72.3407 38.1064C55.7284 40.5104 38.9064 37.8075 22.2488 39.548C21.4672 39.6299 21.459 40.8585 22.2488 40.7766Z" fill="#727272"/>
<path d="M22.0843 39.5726C20.4469 40.0804 20.6526 42.21 21.5207 43.3403C22.9441 45.1913 26.1407 45.2323 28.2265 45.0357C29.0122 44.962 29.0163 43.7334 28.2265 43.8071C26.8771 43.9341 25.4783 43.9218 24.166 43.5368C23.483 43.3362 22.7631 43.0536 22.3723 42.4147C22.1707 42.083 21.784 40.9527 22.4134 40.7602C23.1704 40.5227 22.8454 39.3351 22.0843 39.5726Z" fill="#727272"/>
<path d="M69.7818 39.6748C70.6498 39.6216 71.4891 39.4742 72.353 39.3595C73.723 39.1752 74.4265 39.5438 74.6651 40.9771C74.8626 42.1689 74.1097 42.517 73.0483 42.8528C72.5464 43.0125 72.0198 43.1108 71.5014 43.2132C70.115 43.4834 68.7245 43.6186 67.3134 43.6677C66.5235 43.6964 66.5194 44.925 67.3134 44.8963C69.7201 44.8103 76.4794 44.7202 76.2161 40.9321C76.1502 39.9861 75.2328 38.6797 74.373 38.2538C73.0894 37.6149 71.09 38.3643 69.7777 38.4462C68.9919 38.4954 68.9878 39.724 69.7818 39.6748Z" fill="#727272"/>
<path d="M24.0549 44.7734C23.8862 47.3739 20.9241 48.8441 19.3526 50.6297C18.1184 52.0344 17.1475 53.652 16.444 55.3761C14.9301 59.0701 14.6421 63.2104 15.4114 67.105C16.9953 75.0949 23.0593 81.6883 30.6331 84.5181C31.3778 84.7966 31.6987 83.609 30.9623 83.3346C23.0963 80.3942 16.9829 73.0268 16.3 64.5782C15.975 60.5648 16.8266 56.3876 19.077 53.009C20.9447 50.2079 25.0546 48.4141 25.2891 44.7734C25.3384 43.9871 24.1042 43.9871 24.0549 44.7734Z" fill="#727272"/>
<path d="M70.8226 44.2493C70.8226 47.4805 73.18 49.5076 75.5784 51.3136C77.6395 52.8617 79.2357 54.3687 80.2519 56.7972C81.1364 58.9063 81.626 61.1833 81.737 63.4643C82.1402 71.8556 77.2446 79.6448 69.7201 83.31C69.0084 83.6581 69.6296 84.7188 70.3413 84.3707C77.331 80.9675 82.2595 74.0506 82.9177 66.3024C83.251 62.3832 82.5681 58.0668 80.5687 54.6308C78.3677 50.8427 72.0568 49.1063 72.0527 44.2493C72.0568 43.4589 70.8226 43.4589 70.8226 44.2493Z" fill="#727272"/>
<path d="M30.267 83.6172C29.4689 85.3823 30.9005 86.9058 32.6778 86.9877C34.6072 87.0819 36.6436 86.6355 38.5772 86.5536C40.8193 86.4553 43.0615 86.4512 45.3036 86.4839C53.6714 86.6109 62.0351 87.2457 70.3659 86.1154C70.6498 86.0785 70.7938 85.7673 70.8185 85.5215C70.8843 84.8335 70.8267 84.3257 70.6251 83.6787C70.3906 82.9251 69.2017 83.2487 69.4362 84.0063C69.646 84.5018 69.6954 85.0096 69.5843 85.5215C69.7365 85.325 69.8846 85.1284 70.0368 84.9277C63.5408 85.8082 56.9873 85.5871 50.4543 85.3823C47.2865 85.284 44.1146 85.1939 40.9469 85.2472C39.4987 85.2717 38.0506 85.3291 36.6025 85.4274C35.8126 85.4806 35.0268 85.5543 34.2411 85.6321C33.661 85.6895 30.4439 86.185 31.3284 84.2274C31.6534 83.519 30.592 82.8965 30.267 83.6172Z" fill="#727272"/>
<path d="M22.0802 51.2236C17.0529 57.3788 16.662 65.9707 21.1751 72.5231C21.3972 72.8467 21.9321 72.5395 21.7099 72.2119C17.3614 65.9011 17.6617 57.604 22.5204 51.6536C22.7631 51.3546 22.3311 50.9165 22.0802 51.2236Z" fill="#727272"/>
<path d="M22.4134 74.8042C22.8166 75.3857 23.2773 75.9222 23.7916 76.4095C24.0796 76.6798 24.5156 76.2498 24.2277 75.9754C23.7504 75.5249 23.3226 75.0335 22.9441 74.497C22.7219 74.1735 22.1871 74.4765 22.4134 74.8042Z" fill="#727272"/>
<path d="M25.865 78.3384C26.2641 78.3384 26.2641 77.7241 25.865 77.7241C25.466 77.7241 25.466 78.3384 25.865 78.3384Z" fill="#727272"/>
<path d="M69.6296 44.2821C69.3128 45.4615 69.0413 46.6492 69.5062 47.8286C69.9381 48.9221 70.8144 49.909 71.559 50.8141C73.3445 52.9764 76.9977 55.1592 77.1705 58.1733C77.1911 58.5664 77.8082 58.5705 77.7876 58.1733C77.6601 55.9168 75.9898 54.4712 74.4512 53.0051C73.4597 52.059 72.5258 51.0557 71.6701 49.9827C71.0942 49.2579 70.4442 48.4921 70.1109 47.6198C69.7036 46.5591 69.9381 45.5148 70.222 44.45C70.3248 44.0651 69.7283 43.9012 69.6296 44.2821Z" fill="#727272"/>
<path d="M77.4379 59.5985C77.5243 60.3848 77.6107 61.1711 77.6971 61.9574C77.7382 62.3464 78.3594 62.3505 78.3142 61.9574C78.2278 61.1711 78.1414 60.3848 78.055 59.5985C78.0139 59.2095 77.3968 59.2054 77.4379 59.5985Z" fill="#727272"/>
<path d="M77.4955 63.575C77.5408 63.8043 77.5037 64.0214 77.4174 64.2343C77.3556 64.3899 77.4873 64.5701 77.6313 64.6111C77.8082 64.6602 77.9481 64.5497 78.0098 64.3981C78.1373 64.0787 78.1538 63.747 78.0879 63.4112C78.018 63.0262 77.4215 63.19 77.4955 63.575Z" fill="#727272"/>
<path d="M50.7423 59.0824C52.2151 56.2976 54.9879 54.4752 58.2091 54.6349C62.0434 54.8233 66.0751 58.1446 63.3887 62.0678C61.813 64.3653 58.9826 65.8519 56.8968 67.662C54.5806 69.6728 52.4619 71.8883 50.5078 74.2554C50.0059 74.8615 50.8739 75.7338 51.3799 75.1236C54.3585 71.5156 57.7278 68.4647 61.4304 65.6144C63.9029 63.706 66.6387 60.8106 65.1371 57.4566C63.8947 54.68 60.4636 53.3162 57.5715 53.3981C54.1651 53.4964 51.2442 55.4949 49.6726 58.4599C49.3065 59.1602 50.372 59.7827 50.7423 59.0824Z" fill="#727272"/>
<path d="M50.4502 58.1282C47.8131 55.1755 44.5219 52.1328 40.2516 52.3539C37.0839 52.5177 34.3563 54.9094 33.8996 58.0586C33.336 61.8959 36.2158 65.2622 39.0216 67.4859C42.4691 70.2175 47.6691 71.1635 50.2486 74.8656C50.697 75.5127 51.7667 74.8984 51.3141 74.2473C49.7056 71.9375 47.3647 70.7499 44.8799 69.5541C41.7203 68.0347 38.606 66.155 36.5737 63.2228C34.3069 59.9588 34.6813 54.9667 39.075 53.7709C43.3741 52.6037 46.9944 56.1093 49.5739 58.9964C50.1046 59.5903 50.9768 58.718 50.4502 58.1282Z" fill="#727272"/>
</g>
<g clip-path="url(#clip1_2005_43)">
<path d="M46.4719 12.629C45.283 14.782 43.4688 16.507 41.1404 17.4C40.2313 17.7507 39.0342 17.7303 39.1535 16.4866C39.2275 15.7118 40.0667 15.039 40.6756 14.676C41.7123 14.0562 43.041 13.8523 44.1558 13.3711C44.8799 13.0571 44.2546 12.001 43.5347 12.315C41.5436 13.1754 39.3633 13.3793 38.232 15.4671C37.6273 16.5844 37.4298 18.1381 38.7915 18.7742C40.2683 19.4634 42.3005 18.3501 43.5264 17.5672C45.2295 16.4825 46.5665 15.0022 47.5332 13.2447C47.9199 12.5556 46.8545 11.9357 46.4719 12.629Z" fill="#46A358"/>
<path d="M43.8967 12.1192C42.3992 12.2823 40.9142 12.2904 39.4291 12.0131C38.8861 11.9112 38.3472 11.7725 37.8206 11.6054C37.3763 11.4749 36.9485 11.3158 36.5248 11.1242C35.8954 10.3331 35.9571 9.89268 36.7181 9.79482C38.9478 8.0903 42.4321 9.88045 44.6207 10.7082C45.3653 10.9896 45.6861 9.80705 44.9498 9.52976C43.0451 8.80799 40.9553 7.7233 38.8614 7.95573C37.6602 8.08622 34.8916 8.6041 34.5707 10.1007C33.8302 13.5668 42.1072 13.5423 43.8967 13.3466C44.6783 13.2569 44.6865 12.0335 43.8967 12.1192Z" fill="#46A358"/>
<path d="M45.353 9.5501C43.4812 8.07802 41.8192 5.7863 41.9097 3.30292C41.9509 2.19784 42.6584 1.7289 43.6828 2.22639C44.2463 2.4996 44.6372 3.1969 44.9457 3.72294C45.6615 4.95443 45.9618 6.36127 46.2251 7.74364C46.3732 8.51434 47.5621 8.18812 47.414 7.41742C47.019 5.35405 46.4554 3.20506 44.9169 1.66365C44.0078 0.754304 42.4939 -0.28961 41.4243 0.933727C38.9231 3.79226 42.1977 8.61629 44.4808 10.4146C45.0979 10.8999 45.9782 10.0394 45.353 9.5501Z" fill="#46A358"/>
<path d="M47.3852 7.756C47.6567 5.7905 48.5206 2.05117 50.7996 1.41503C52.9182 0.827829 52.7084 4.20424 52.116 5.32156C51.5195 6.44703 50.3471 7.50317 49.4955 8.44514C48.969 9.02827 49.837 9.89684 50.3676 9.30964C51.5894 7.95581 53.416 6.40217 53.6792 4.49784C53.8849 3.02168 53.7738 0.791129 52.1325 0.138682C50.635 -0.456675 49.1541 0.897152 48.3025 1.96146C47.0478 3.52733 46.4637 5.46836 46.1922 7.42162C46.0852 8.20048 47.2741 8.53486 47.3852 7.756Z" fill="#46A358"/>
<path d="M50.454 9.46471C51.8897 8.274 54.5554 7.4462 56.3079 8.51866C58.5787 9.91327 55.3617 10.7492 54.3004 10.8185C53.165 10.896 52.0296 10.8267 50.9024 10.6962C50.1167 10.6065 50.1208 11.8298 50.9024 11.9195C52.7454 12.1316 55.2342 12.4048 56.9497 11.4995C58.0151 10.9368 58.7803 9.57481 58.1262 8.42895C57.3939 7.14445 55.3329 6.83454 53.996 6.87124C52.3381 6.92017 50.8448 7.5563 49.586 8.60022C48.973 9.10587 49.8493 9.97036 50.454 9.46471Z" fill="#46A358"/>
<path d="M50.5857 11.8786C51.8568 12.3435 53.1198 13.0449 53.8438 14.2274C54.7488 15.7117 54.7694 18.4439 52.1366 17.9341C49.8205 17.4856 48.1462 15.0471 47.6731 12.9307C47.5003 12.1641 46.3115 12.4862 46.4842 13.2569C46.9038 15.1408 47.9529 16.8046 49.5243 17.9586C50.7585 18.8679 52.9264 19.9526 54.3786 18.921C55.8719 17.8607 55.8719 15.6669 55.1972 14.1581C54.3991 12.3802 52.7002 11.3485 50.923 10.6961C50.1661 10.4269 49.8452 11.6095 50.5857 11.8786Z" fill="#46A358"/>
<path d="M38.1045 15.247C34.5008 17.4001 31.8433 19.7978 31.2139 24.1121C30.5269 28.7975 31.6253 33.6949 32.629 38.258C32.7977 39.0287 33.9866 38.7024 33.8179 37.9317C32.9293 33.8947 32.0202 29.7109 32.2958 25.5556C32.5961 21.0252 34.9657 18.55 38.7215 16.3072C39.4044 15.8994 38.7874 14.8392 38.1045 15.247Z" fill="#46A358"/>
<path d="M54.0083 13.8645C59.0477 14.2559 62.6143 18.2685 63.9678 22.8642C65.4405 27.8676 64.6178 33.1361 63.8156 38.1763C63.6922 38.947 64.881 39.2773 65.0045 38.5025C65.9424 32.5897 66.8844 26.3099 64.4614 20.6091C62.6267 16.2908 58.8173 13.0163 54.0083 12.6411C53.2144 12.58 53.2185 13.8033 54.0083 13.8645Z" fill="#46A358"/>
<path d="M39.3263 17.7833C33.2996 22.1302 35.2536 31.9577 36.4713 38.0662C36.6235 38.8369 37.8165 38.5107 37.6602 37.74C37.0225 34.543 36.4302 31.3093 36.4919 28.039C36.5536 24.8583 37.1583 20.8498 39.9474 18.8395C40.5851 18.3787 39.9721 17.3184 39.3263 17.7833Z" fill="#46A358"/>
<path d="M46.0934 13.8278C43.8514 17.2491 42.4034 21.074 41.8768 25.1273C41.6012 27.2519 41.5806 29.405 41.8357 31.5336C42.1113 33.8579 42.8641 36.0925 43.1438 38.4169C43.2343 39.1876 44.4726 39.1998 44.378 38.4169C43.8926 34.3595 42.642 30.6242 42.9711 26.473C43.3125 22.1628 44.7935 18.0605 47.163 14.4435C47.5908 13.7829 46.5254 13.1713 46.0934 13.8278Z" fill="#46A358"/>
<path d="M49.1088 17.608C50.9477 20.6174 51.3344 24.0223 51.6552 27.4599C51.9885 31.0361 52.26 34.6164 52.4903 38.2008C52.5397 38.9838 53.7738 38.9878 53.7245 38.2008C53.4653 34.1434 53.1732 30.086 52.7536 26.0409C52.4245 22.8643 51.8692 19.7529 50.1743 16.9882C49.7629 16.3194 48.6933 16.9311 49.1088 17.608Z" fill="#46A358"/>
<path d="M54.7241 18.1789C59.3192 23.9082 59.4714 31.2237 59.3069 38.2049C59.2904 38.9919 60.5245 38.9919 60.541 38.2049C60.7138 30.8404 60.4176 23.3291 55.5962 17.3144C55.1026 16.6986 54.2346 17.5713 54.7241 18.1789Z" fill="#46A358"/>
<path d="M46.9532 19.6713C46.8833 19.9445 46.8174 20.2137 46.7475 20.4869C46.6529 20.8702 47.2453 21.0333 47.344 20.65C47.4139 20.3768 47.4798 20.1077 47.5497 19.8344C47.6443 19.4552 47.0519 19.2921 46.9532 19.6713Z" fill="#46A358"/>
<path d="M48.286 21.7958C48.286 22.1016 48.286 22.4075 48.286 22.7133C48.286 23.1089 48.9031 23.1089 48.9031 22.7133C48.9031 22.4075 48.9031 22.1016 48.9031 21.7958C48.9031 21.4003 48.286 21.4003 48.286 21.7958Z" fill="#46A358"/>
<path d="M45.3077 23.7328C45.2748 24.1732 45.2378 24.6177 45.2049 25.0581C45.1761 25.4496 45.7931 25.4496 45.8219 25.0581C45.8548 24.6177 45.8919 24.1732 45.9248 23.7328C45.9536 23.3413 45.3365 23.3413 45.3077 23.7328Z" fill="#46A358"/>
<path d="M49.3145 25.8736C49.3145 26.2813 49.3145 26.6891 49.3145 27.0969C49.3145 27.4924 49.9316 27.4924 49.9316 27.0969C49.9316 26.6891 49.9316 26.2813 49.9316 25.8736C49.9316 25.478 49.3145 25.478 49.3145 25.8736Z" fill="#46A358"/>
<path d="M46.9491 28.1164C46.9491 28.5568 46.9491 29.0012 46.9491 29.4416C46.9491 29.8372 47.5662 29.8372 47.5662 29.4416C47.5662 29.0012 47.5662 28.5568 47.5662 28.1164C47.5662 27.7208 46.9491 27.7208 46.9491 28.1164Z" fill="#46A358"/>
<path d="M45.6121 32.602C45.6121 33.2136 45.6121 33.8253 45.6121 34.437C45.6121 34.8325 46.2292 34.8325 46.2292 34.437C46.2292 33.8253 46.2292 33.2136 46.2292 32.602C46.2292 32.2064 45.6121 32.2064 45.6121 32.602Z" fill="#46A358"/>
<path d="M43.7815 28.6017C43.8514 29.0094 43.9255 29.4172 43.9954 29.825C44.0612 30.2124 44.6577 30.0493 44.5919 29.6619C44.522 29.2541 44.4479 28.8463 44.378 28.4385C44.308 28.0552 43.7115 28.2183 43.7815 28.6017Z" fill="#46A358"/>
<path d="M48.5 34.641C48.5329 35.0487 48.5699 35.4565 48.6028 35.8643C48.6357 36.2558 49.2528 36.2558 49.2199 35.8643C49.187 35.4565 49.15 35.0487 49.117 34.641C49.0841 34.2495 48.4629 34.2454 48.5 34.641Z" fill="#46A358"/>
<path d="M50.3471 30.0533C50.38 30.4611 50.417 30.8689 50.4499 31.2766C50.4828 31.664 51.0999 31.6681 51.067 31.2766C51.0341 30.8689 50.997 30.4611 50.9641 30.0533C50.9312 29.6618 50.3142 29.6578 50.3471 30.0533Z" fill="#46A358"/>
<path d="M57.431 16.4011C57.9082 16.8129 58.3854 17.2248 58.8626 17.6326C59.1629 17.8895 59.5989 17.4572 59.2986 17.2003C58.8214 16.7885 58.3442 16.3766 57.867 15.9688C57.5708 15.7119 57.1307 16.1401 57.431 16.4011Z" fill="#46A358"/>
<path d="M57.6902 19.8059C57.9576 20.283 58.2291 20.7642 58.4965 21.2413C58.6898 21.5838 59.2246 21.278 59.0312 20.9314C58.7638 20.4543 58.4923 19.9731 58.2249 19.496C58.0275 19.1534 57.4968 19.4634 57.6902 19.8059Z" fill="#46A358"/>
<path d="M60.1625 20.0056C60.467 20.4174 60.7714 20.8293 61.0758 21.2371C61.3062 21.5511 61.8451 21.2452 61.6106 20.9272C61.3062 20.5153 61.0017 20.1034 60.6973 19.6957C60.4628 19.3858 59.928 19.6875 60.1625 20.0056Z" fill="#46A358"/>
<path d="M61.6846 25.3395C61.7875 26.0531 61.8944 26.7667 61.9973 27.4803C62.0549 27.8677 62.6473 27.7046 62.5938 27.3172C62.4909 26.6036 62.384 25.89 62.2811 25.1764C62.2194 24.789 61.627 24.9562 61.6846 25.3395Z" fill="#46A358"/>
<path d="M59.6113 23.5085C59.7141 23.8469 59.817 24.1895 59.9198 24.5279C60.035 24.9031 60.6274 24.744 60.5163 24.3648C60.4135 24.0263 60.3106 23.6838 60.2078 23.3453C60.0926 22.9702 59.4961 23.1292 59.6113 23.5085Z" fill="#46A358"/>
<path d="M62.8817 31.1748C62.927 31.66 62.9188 32.1453 62.8406 32.6265C62.7789 33.0098 63.3713 33.177 63.4371 32.7896C63.5235 32.2513 63.5523 31.7171 63.5029 31.1748C63.4618 30.7874 62.8447 30.7833 62.8817 31.1748Z" fill="#46A358"/>
<path d="M61.4501 33.1116C61.4501 33.4868 61.4501 33.8578 61.4501 34.233C61.4501 34.6285 62.0672 34.6285 62.0672 34.233C62.0672 33.8578 62.0672 33.4868 62.0672 33.1116C62.0672 32.7161 61.4501 32.7161 61.4501 33.1116Z" fill="#46A358"/>
<path d="M62.0878 22.8929C62.2565 23.3007 62.4292 23.7085 62.5979 24.1163C62.6637 24.2712 62.8036 24.3773 62.9764 24.3283C63.1204 24.2916 63.2561 24.104 63.1903 23.9532C63.0216 23.5454 62.8488 23.1376 62.6802 22.7298C62.6144 22.5749 62.4745 22.4688 62.3017 22.5178C62.1577 22.5545 62.0261 22.7421 62.0878 22.8929Z" fill="#46A358"/>
<path d="M60.9359 29.9513C60.9359 30.1878 60.9359 30.4284 60.9359 30.6649C60.9359 31.0605 61.553 31.0605 61.553 30.6649C61.553 30.4284 61.553 30.1878 61.553 29.9513C61.553 29.5558 60.9359 29.5558 60.9359 29.9513Z" fill="#46A358"/>
<path d="M62.1701 36.7817C62.1536 37.0712 62.0837 37.3485 61.9767 37.6177C61.915 37.7726 62.0466 37.952 62.1906 37.9928C62.3675 38.0417 62.5074 37.9316 62.5691 37.7808C62.7007 37.4586 62.7666 37.1283 62.7871 36.7817C62.8118 36.3862 62.1947 36.3902 62.1701 36.7817Z" fill="#46A358"/>
<path d="M36.2903 18.8843C36.0805 19.1861 35.8707 19.4879 35.6567 19.7896C35.4305 20.1158 35.9653 20.4217 36.1915 20.0995C36.4013 19.7978 36.6111 19.496 36.8251 19.1943C37.0472 18.868 36.5124 18.5622 36.2903 18.8843Z" fill="#46A358"/>
<path d="M34.5296 23.3453C34.4514 23.7164 34.3774 24.0874 34.2992 24.4626C34.2211 24.8459 34.8135 25.0131 34.8957 24.6257C34.9739 24.2546 35.0479 23.8836 35.1261 23.5084C35.2043 23.1251 34.6078 22.962 34.5296 23.3453Z" fill="#46A358"/>
<path d="M34.3321 21.1229C34.0071 21.5511 33.7644 22.0241 33.5999 22.5338C33.4765 22.909 34.073 23.068 34.1964 22.6969C34.3486 22.2361 34.5748 21.8202 34.8669 21.4328C35.1055 21.1148 34.5666 20.813 34.3321 21.1229Z" fill="#46A358"/>
<path d="M33.0774 25.1803C33.0034 25.69 32.9252 26.1957 32.8512 26.7054C32.7936 27.0887 33.3901 27.2559 33.4477 26.8685C33.5217 26.3588 33.5999 25.8531 33.6739 25.3434C33.7315 24.956 33.135 24.7888 33.0774 25.1803Z" fill="#46A358"/>
<path d="M33.6945 28.1164C33.641 28.6261 33.6739 29.1277 33.7727 29.6293C33.8467 30.0167 34.4432 29.8536 34.3692 29.4662C34.2828 29.0176 34.2663 28.569 34.3157 28.1164C34.3486 27.7249 33.7315 27.729 33.6945 28.1164Z" fill="#46A358"/>
<path d="M34.2005 31.9904C34.2334 32.2962 34.2704 32.6021 34.3033 32.9079C34.3198 33.071 34.4309 33.2137 34.6119 33.2137C34.7641 33.2137 34.941 33.0751 34.9204 32.9079C34.8875 32.6021 34.8505 32.2962 34.8176 31.9904C34.8011 31.8273 34.69 31.6846 34.509 31.6846C34.3568 31.6846 34.184 31.8232 34.2005 31.9904Z" fill="#46A358"/>
<path d="M33.2008 34.2902C33.4394 34.6776 33.6122 35.0854 33.7192 35.5298C33.8138 35.9132 34.4062 35.7501 34.3157 35.3667C34.1964 34.8774 33.9989 34.4125 33.7356 33.9803C33.5258 33.6459 32.9952 33.9558 33.2008 34.2902Z" fill="#46A358"/>
<path d="M34.5173 36.8634C34.5872 37.0346 34.653 37.2018 34.7229 37.3731C34.7846 37.524 34.9286 37.6341 35.1014 37.5851C35.2495 37.5444 35.3811 37.3649 35.3153 37.21C35.2454 37.0387 35.1796 36.8715 35.1096 36.7002C35.0479 36.5494 34.9039 36.4393 34.7312 36.4882C34.5872 36.5249 34.4555 36.7084 34.5173 36.8634Z" fill="#46A358"/>
</g>
<defs>
<clipPath id="clip0_2005_43">
<rect width="68" height="49" fill="white" transform="translate(15 38)"/>
</clipPath>
<clipPath id="clip1_2005_43">
<rect width="35" height="39" fill="white" transform="translate(31)"/>
</clipPath>
</defs>
</svg>
